<?xml version="1.0" standalone="no"?>
<!DOCTYPE svg PUBLIC "-//W3C//DTD SVG 20010904//EN"
 "http://www.w3.org/TR/2001/REC-SVG-20010904/DTD/svg10.dtd">
<svg version="1.0" xmlns="http://www.w3.org/2000/svg"
 width="1024.000000pt" height="1024.000000pt" viewBox="0 0 1024.000000 1024.000000"
 preserveAspectRatio="xMidYMid meet">
<metadata>
Created by potrace 1.11, written by Peter Selinger 2001-2013
</metadata>
<g transform="translate(0.000000,1024.000000) scale(0.100000,-0.100000)"
fill="#000000" stroke="none">
<path d="M4775 10229 c-1586 -104 -3044 -955 -3930 -2294 -1126 -1701 -1126
-3929 0 -5630 475 -718 1131 -1314 1887 -1715 l118 -62 10 27 c6 15 362 945
792 2068 429 1123 783 2051 785 2063 3 12 -1 24 -9 27 -7 3 -611 235 -1343
516 -731 282 -1350 524 -1374 539 -28 17 -53 43 -69 72 -42 80 -33 118 119
515 121 316 138 354 175 391 53 54 116 71 189 51 28 -8 1058 -402 2290 -876
1232 -475 3001 -1156 3930 -1513 930 -358 1695 -652 1701 -655 11 -4 78 267
113 457 69 373 96 835 71 1225 -81 1271 -611 2433 -1516 3327 -1048 1035
-2467 1563 -3939 1467z m2228 -2813 c288 -86 519 -298 626 -576 66 -169 78
-396 32 -573 -70 -267 -248 -484 -504 -616 -136 -69 -217 -86 -407 -86 -179 0
-224 8 -367 65 -154 62 -322 198 -417 338 -54 79 -113 206 -138 299 -18 64
-21 106 -21 238 -1 145 2 168 26 248 111 362 364 600 728 682 104 24 331 14
442 -19z"/>
<path d="M6510 1903 c-376 -983 -690 -1803 -698 -1822 l-13 -34 58 7 c178 20
539 101 780 175 1118 344 2103 1086 2758 2076 95 143 255 415 255 433 0 5 -18
17 -40 26 -100 40 -2387 919 -2400 923 -13 3 -158 -368 -700 -1784z"/>
<path d="M4347 948 c-168 -442 -308 -810 -309 -818 -2 -11 19 -19 87 -33 145
-29 329 -56 336 -49 6 7 589 1528 592 1546 2 8 -366 156 -389 156 -5 0 -148
-361 -317 -802z"/>
</g>
</svg>
